# AST/ASF file generated using VICON BodyLanguage
# -----------------------------------------------
:version 1.10
:name VICON
:units
  mass 1.0
  length 0.45
  angle deg
:documentation
   .ast/.asf automatically generated from VICON data using
   VICON BodyBuilder and BodyLanguage model FoxedUp or BRILLIANT.MOD
:root
   order TX TY TZ RX RY RZ
   axis XYZ
   position 0 0 0  
   orientation 0 0 0 
:bonedata
  begin
     id 1 
     name lhipjoint
     direction 0.624716 -0.669793 0.401383 
     length 2.38238 
     axis 0 0 0  XYZ
  end
  begin
     id 2 
     name lfemur
     direction 0.34202 -0.939693 0  
     length 6.4574  
     axis 0 0 20  XYZ
    dof rx ry rz
    limits (-160.0 20.0)
           (-70.0 70.0)
           (-60.0 70.0)
  end
  begin
     id 3 
     name ltibia
     direction 0.34202 -0.939693 0   
     length 7.68739   
     axis 0 0 20   XYZ
    dof rx
    limits (-10.0 170.0)
  end
  begin
     id 4 
     name lfoot
     direction 0.0681309 -0.187188 0.979959   
     length 2.46615   
     axis -90 7.62852e-016 20   XYZ
    dof rx rz
    limits (-45.0 90.0)
           (-70.0 20.0)
  end
  begin
     id 5 
     name ltoes
     direction 1.53566e-011 -4.21819e-011 1   
     length 1.2376   
     axis -90 7.62852e-016 20   XYZ
    dof rx
    limits (-90.0 20.0)
  end
  begin
     id 6 
     name rhipjoint
     direction -0.644473 -0.655875 0.393043   
     length 2.43293  
     axis 0 0 0  XYZ 
  end
  begin
     id 7 
     name rfemur
     direction -0.34202 -0.939693 0   
     length 6.7025   
     axis 0 0 -20   XYZ
    dof rx ry rz
    limits (-160.0 20.0)
           (-70.0 70.0)
           (-70.0 60.0)
  end
  begin
     id 8 
     name rtibia
     direction -0.34202 -0.939693 0   
     length 7.80547   
     axis 0 0 -20   XYZ
    dof rx
    limits (-10.0 170.0)
 end
 begin
     id 9 
     name rfoot
     direction -0.0756734 -0.207911 0.975216   
     length 2.40315  
     axis -90 -7.62852e-016 -20   XYZ
    dof rx rz
    limits (-45.0 90.0)
           (-20.0 70.0)
  end
  begin
     id 10 
     name rtoes
     direction -1.5353e-011 -4.21879e-011 1   
     length 1.20477   
     axis -90 -7.62852e-016 -20   XYZ
    dof rx
    limits (-90.0 20.0)
  end
  begin
     id 11 
     name lowerback
     direction 0.0160353 0.987463 -0.157037   
     length 2.18572   
     axis 0 0 0   XYZ
    dof rx ry rz
    limits (-20.0 45.0)
           (-30.0 30.0)
           (-30.0 30.0)
  end
  begin
     id 12 
     name upperback
     direction -0.00499661 0.999756 0.0215076   
     length 2.18016   
     axis 0 0 0   XYZ
    dof rx ry rz
    limits (-20.0 45.0)
           (-30.0 30.0)
           (-30.0 30.0)
  end
  begin
     id 13 
     name thorax
     direction -0.00921346 0.995333 0.0960619   
     length 2.24923   
     axis 0 0 0   XYZ
    dof rx ry rz
    limits (-20.0 45.0)
           (-30.0 30.0)
           (-30.0 30.0)
  end
  begin
     id 14 
     name lowerneck
     direction 0.0274184 0.991181 0.12965   
     length 1.70911   
     axis 0 0 0   XYZ
    dof rx ry rz
    limits (-20.0 45.0)
           (-30.0 30.0)
           (-30.0 30.0)
  end
  begin
     id 15 
     name upperneck
     direction 0.0015627 0.999959 -0.00893559   
     length 1.69312   
     axis 0 0 0   XYZ
    dof rx ry rz
    limits (-20.0 45.0)
           (-30.0 30.0)
           (-30.0 30.0)
  end
  begin
     id 16
     name head
     direction -0.00230242 0.999856 -0.0168327  
     length 1.80241  
     axis 0 0 0   XYZ
    dof rx ry rz
    limits (-20.0 45.0)
           (-30.0 30.0)
           (-30.0 30.0)
  end
  begin
     id 17 
     name lclavicle
     direction 0.955523 0.290741 -0.0494489  
     length 3.84275  
     axis 0 0 0   XYZ
    dof ry rz
    limits (-20.0 10.0)
           (0.0 20.0)
  end
  begin
     id 18 
     name lhumerus
     direction 1 -4.48967e-011 -3.18382e-028   
     length 5.17714   
     axis 180 -30 -90   XYZ
    dof rx ry rz
    limits (-60.0 90.0)
           (-90.0 90.0)
           (-90.0 90.0)
  end
  begin
     id 19
     name lradius
     direction 1 -4.48968e-011 -2.22911e-027   
     length 3.43679   
     axis 180 -30 -90   XYZ
    dof rx
    limits (-10.0 170.0)
  end
  begin
     id 20
     name lwrist
     direction 1 -4.48951e-011 -6.32245e-027   
     length 1.7184   
     axis 3.57107e-015 90 90   XYZ
    dof ry
    limits (-180.0 0.0)
 end
  begin
     id 21 
     name lhand
     direction 1 -4.48924e-011 -1.26431e-026   
     length 0.573117   
     axis 8.06912e-015 90 90   XYZ
    dof rx rz
    limits (-90.0 90.0)
           (-45.0 45.0)
  end
  begin
     id 22 
     name lfingers
     direction 1 -4.49001e-011 -2.52965e-026   
     length 0.462062   
     axis 1.61381e-014 90 90   XYZ
    dof rx
    limits (0.0 90.0)
  end
  begin
     id 23
     name lthumb
     direction 0.707107 -6.35008e-011 0.707107   
     length 0.663431   
     axis -90 45 -1.62303e-014   XYZ
    dof rx rz
    limits (-45.0 45.0)
           (-45.0 45.0)
  end
  begin
     id 24 
     name rclavicle
     direction -0.963917 0.256881 -0.0698287   
     length 3.73057  
     axis 0 0 0   XYZ 
    dof ry rz
    limits (-10.0 20.0)
           (-20.0 0.0)
  end
  begin
     id 25 
     name rhumerus
     direction -1 -4.48962e-011 -2.73982e-027  
     length 5.23908   
     axis 180 30 90   XYZ
    dof rx ry rz
    limits (-90.0 60.0)
           (-90.0 90.0)
           (-90.0 90.0)
  end
  begin
     id 26 
     name rradius
     direction -1 -4.48968e-011 -4.33218e-027   
     length 3.46485   
     axis 180 30 90   XYZ
    dof rx
    limits (-10.0 170.0)
  end
  begin
     id 27 
     name rwrist
     direction -1 -4.48989e-011 -6.32372e-027   
     length 1.73243   
     axis 3.57107e-015 -90 -90   XYZ
    dof ry
    limits (-180.0 0.0)
  end
  begin
     id 28
     name rhand
     direction -1 -4.48948e-011 -1.26448e-026   
     length 0.608752   
     axis 8.06912e-015 -90 -90   XYZ
    dof rx rz
    limits (-90.0 90.0)
           (-45.0 45.0)
  end
  begin
     id 29
     name rfingers
     direction -1 -4.48962e-011 -2.52913e-026   
     length 0.490792   
     axis 1.61381e-014 -90 -90   XYZ
    dof rx
    limits (0.0 90.0)
  end
  begin
     id 30
     name rthumb
     direction -0.707107 -6.34878e-011 0.707107   
     length 0.704682   
     axis -90 -45 1.62303e-014   XYZ
    dof rx rz
    limits (-45.0 45.0)
           (-45.0 45.0)
  end
:hierarchy
  begin
    root lhipjoint rhipjoint lowerback
    lhipjoint lfemur
    lfemur ltibia
    ltibia lfoot
    lfoot ltoes
    rhipjoint rfemur
    rfemur rtibia
    rtibia rfoot
    rfoot rtoes
    lowerback upperback
    upperback thorax
    thorax lowerneck lclavicle rclavicle
    lowerneck upperneck
    upperneck head
    lclavicle lhumerus
    lhumerus lradius
    lradius lwrist
    lwrist lhand lthumb
    lhand lfingers
    rclavicle rhumerus
    rhumerus rradius
    rradius rwrist
    rwrist rhand rthumb
    rhand rfingers
  end

#!OML:ASF G:\JayActor3\Patient Classification 1\Patient 1\Session 6\male.ASF
:FULLY-SPECIFIED
:DEGREES
770
root 22.5405 15.1772 -2.30309 195.85 -49.2455 -181.392
lowerback 34.286 2.34855 1.98026
upperback 17.8216 -0.236938 -0.773271
thorax 2.14022 -1.30798 -1.83413
lowerneck 3.30073 -0.793319 2.15399
upperneck -25.2318 -1.49779 1.95979
head -8.35593 -1.67199 0.494245
rclavicle 4.56211e-014 4.9895e-014
rhumerus -10.596 9.72285 -78.4247
rradius 61.7996
rwrist -10.6049
rhand -24.8823 -8.87015
rfingers 7.12502
rthumb 1.62523 -38.8437
lclavicle 4.56211e-014 4.9895e-014
lhumerus 5.27255 -14.7097 60.3722
lradius 71.4666
lwrist 33.1237
lhand -21.1934 11.7841
lfingers 7.12502
lthumb 5.1876 41.7006
rfemur -55.8657 -7.70191 21.0827
rtibia 79.6159
rfoot -17.667 -17.0096
rtoes -5.05454
lfemur -50.378 16.4541 -30.1276
ltibia 55.8211
lfoot -19.447 8.41022
ltoes -3.0668
771
root 22.5156 15.1883 -2.31688 195.99 -49.1226 -181.368
lowerback 34.3417 2.36548 1.99263
upperback 17.8521 -0.228161 -0.761426
thorax 2.1555 -1.30761 -1.83103
lowerneck 3.3048 -0.793762 2.17013
upperneck -25.2102 -1.50642 1.90412
head -8.34984 -1.67103 0.473131
rclavicle 1.31198e-014 2.1916e-014
rhumerus -10.5721 9.72228 -78.412
rradius 61.8562
rwrist -10.5953
rhand -24.8683 -8.86831
rfingers 7.12502
rthumb 1.63875 -38.8418
lclavicle 1.31198e-014 2.1916e-014
lhumerus 5.23915 -14.7614 60.4591
lradius 71.311
lwrist 33.0887
lhand -21.2431 11.8488
lfingers 7.12502
lthumb 5.13959 41.7664
rfemur -56.4018 -7.6984 21.0049
rtibia 79.4991
rfoot -17.4199 -16.1243
rtoes -5.8571
lfemur -50.3683 16.5798 -30.1796
ltibia 55.6872
lfoot -19.4854 8.35653
ltoes -2.9928
772
root 22.4915 15.1985 -2.33189 196.141 -49.0112 -181.35
lowerback 34.4018 2.37318 2.01008
upperback 17.8685 -0.224956 -0.744425
thorax 2.15361 -1.30886 -1.82314
lowerneck 3.3107 -0.790643 2.1816
upperneck -25.2115 -1.51105 1.85366
head -8.35182 -1.66965 0.454723
rclavicle 5.53615e-014 1.2424e-013
rhumerus -10.5653 9.72412 -78.4027
rradius 61.8905
rwrist -10.5823
rhand -24.8605 -8.83837
rfingers 7.12502
rthumb 1.64632 -38.8118
lclavicle 5.53615e-014 1.2424e-013
lhumerus 5.168 -14.8499 60.559
lradius 71.1499
lwrist 33.0295
lhand -21.2611 11.94
lfingers 7.12502
lthumb 5.12224 41.8581
rfemur -56.8935 -7.64256 20.8947
rtibia 79.1723
rfoot -17.255 -15.1417
rtoes -7.0867
lfemur -50.3728 16.6893 -30.2283
ltibia 55.5672
lfoot -19.5201 8.31319
ltoes -2.98163
773
root 22.468 15.208 -2.34829 196.303 -48.908 -181.342
lowerback 34.4641 2.37209 2.02614
upperback 17.8742 -0.229774 -0.72494
thorax 2.13885 -1.31356 -1.80927
lowerneck 3.32436 -0.781518 2.17991
upperneck -25.2426 -1.50654 1.82019
head -8.36519 -1.66608 0.444188
rclavicle 1.20265e-014 -6.6742e-014
rhumerus -10.5677 9.74043 -78.3994
rradius 61.9023
rwrist -10.5701
rhand -24.8535 -8.78102
rfingers 7.12502
rthumb 1.65302 -38.7544
lclavicle 1.20265e-014 -6.6742e-014
lhumerus 5.06239 -14.9694 60.661
lradius 70.9842
lwrist 32.9546
lhand -21.2543 12.0475
lfingers 7.12502
lthumb 5.12877 41.9654
rfemur -57.3386 -7.53835 20.7577
rtibia 78.6391
rfoot -17.1566 -14.1765
rtoes -8.54594
lfemur -50.3844 16.7839 -30.2752
ltibia 55.4547
lfoot -19.555 8.2817
ltoes -3.00624
774
root 22.445 15.2172 -2.36616 196.485 -48.813 -181.359
lowerback 34.528 2.36353 2.03648
upperback 17.871 -0.242573 -0.70749
thorax 2.11326 -1.32175 -1.79194
lowerneck 3.34683 -0.7723 2.17521
upperneck -25.3027 -1.49988 1.80422
head -8.38995 -1.66458 0.440524
rclavicle 2.79292e-014 -2.52457e-014
rhumerus -10.5728 9.76452 -78.4017
rradius 61.8878
rwrist -10.5601
rhand -24.8248 -8.68564
rfingers 7.12502
rthumb 1.68081 -38.6588
lclavicle 2.79292e-014 -2.52457e-014
lhumerus 4.93275 -15.1211 60.7595
lradius 70.8143
lwrist 32.8647
lhand -21.2039 12.169
lfingers 7.12502
lthumb 5.17746 42.0857
rfemur -57.7362 -7.3996 20.5897
rtibia 77.9177
rfoot -17.1516 -13.3411
rtoes -9.95619
lfemur -50.3915 16.8582 -30.3296
ltibia 55.3428
lfoot -19.5962 8.25404
ltoes -2.98212
775
root 22.4224 15.2264 -2.38549 196.682 -48.7316 -181.403
lowerback 34.5957 2.34449 2.04677
upperback 17.8626 -0.266625 -0.693016
thorax 2.08025 -1.33487 -1.77429
lowerneck 3.37693 -0.765328 2.16902
upperneck -25.3876 -1.49438 1.80421
head -8.42452 -1.66652 0.443146
rclavicle 1.05356e-014 7.28049e-014
rhumerus -10.5772 9.79005 -78.4108
rradius 61.8454
rwrist -10.552
rhand -24.7582 -8.4918
rfingers 7.12502
rthumb 1.74512 -38.4644
lclavicle 1.05356e-014 7.28049e-014
lhumerus 4.78776 -15.3 60.8483
lradius 70.6431
lwrist 32.7765
lhand -21.1009 12.2945
lfingers 7.12502
lthumb 5.27695 42.2088
rfemur -58.0758 -7.24249 20.3956
rtibia 77.0257
rfoot -17.2571 -12.7452
rtoes -11.0934
lfemur -50.3788 16.9073 -30.3879
ltibia 55.2249
lfoot -19.6414 8.22924
ltoes -2.92147
